<svg xmlns="http://www.w3.org/2000/svg" xmlns:xlink="http://www.w3.org/1999/xlink" width="299.553" height="281.74" viewBox="0 0 299.553 281.74">
  <defs>
    <linearGradient id="linear-gradient" x1="0.902" y1="1" x2="-0.101" y2="0.044" gradientUnits="objectBoundingBox">
      <stop offset="0" stop-color="#b77af0"/>
      <stop offset="1" stop-color="#431cfd"/>
    </linearGradient>
  </defs>
  <g id="Group_1446" data-name="Group 1446" transform="translate(-1031.111 -715)">
    <path id="Path_1992" data-name="Path 1992" d="M281.74,87.737c0,116.983-63.07,211.816-140.87,211.816S0,204.72,0,87.737,281.74-29.246,281.74,87.737Z" transform="translate(1031.111 996.74) rotate(-90)" fill="url(#linear-gradient)"/>
    <g id="Group_1445" data-name="Group 1445" transform="translate(1099.073 782.363)">
      <path id="Path_1978" data-name="Path 1978" d="M2127.445,1399.144a73.168,73.168,0,0,1-23.432-15.84q-2.514-2.621-3.606-3.933a57.969,57.969,0,0,0-.655,8.084,54.433,54.433,0,0,0,4.479,21.9,58.856,58.856,0,0,0,12.126,18.08,57.138,57.138,0,0,0,17.861,12.017,56.195,56.195,0,0,0,43.97,0,60.136,60.136,0,0,0,18.027-12.017,57.983,57.983,0,0,0,14.2-24.033h18.026a73.756,73.756,0,0,1-43.479,52.109,74.321,74.321,0,0,1-57.517,0,73.208,73.208,0,0,1-23.432-15.841,69.526,69.526,0,0,1-18.245-30.588,75.753,75.753,0,0,1-3.277-21.85,74.943,74.943,0,0,1,1.093-12.781q1.745-10.38,12.125-13.109,10.159-2.733,16.824,5.462,2.072,2.511,3.822,4.26a56.574,56.574,0,0,0,79.858,0,66.29,66.29,0,0,0,8.957-11.8,61.393,61.393,0,0,0-8.957-11.8,56.383,56.383,0,0,0-70.681-7.32l-8.74-15.075a73.791,73.791,0,0,1,68.168-5.681,73.867,73.867,0,0,1,39.655,39.874,76.856,76.856,0,0,1-16.06,24.033,74.319,74.319,0,0,1-23.6,15.84,74.31,74.31,0,0,1-57.517,0Z" transform="translate(-2082.491 -1313.606)" fill="#fff"/>
    </g>
  </g>
</svg>
